<mxfile host="app.diagrams.net" modified="2023-11-05T23:41:41.961Z" agent="Mozilla/5.0 (Windows NT 10.0; Win64; x64) AppleWebKit/537.36 (KHTML, like Gecko) Chrome/119.0.0.0 Safari/537.36" etag="tRbe9iztoWf_N9Nf6ji8" version="22.0.8" type="device">
  <diagram name="Page-1" id="vqeGl7__MS6L4NNuizfv">
    <mxGraphModel dx="3026" dy="1610" grid="1" gridSize="10" guides="1" tooltips="1" connect="1" arrows="1" fold="1" page="1" pageScale="1" pageWidth="850" pageHeight="1100" math="0" shadow="0">
      <root>
        <mxCell id="0" />
        <mxCell id="1" parent="0" />
        <mxCell id="6iUq0RLo29yA2gXEmjWx-30" value="" style="rounded=1;whiteSpace=wrap;html=1;" parent="1" vertex="1">
          <mxGeometry x="-675" y="-390" width="665" height="310" as="geometry" />
        </mxCell>
        <mxCell id="stxOI4bzDLG80uCZGU0x-5" value="&lt;i&gt;&amp;lt;&amp;lt;abstract&amp;gt;&amp;gt;&lt;br&gt;UnidadCompetidor&lt;/i&gt;" style="swimlane;fontStyle=1;align=center;verticalAlign=top;childLayout=stackLayout;horizontal=1;startSize=40;horizontalStack=0;resizeParent=1;resizeParentMax=0;resizeLast=0;collapsible=1;marginBottom=0;whiteSpace=wrap;html=1;" parent="1" vertex="1">
          <mxGeometry x="210" y="-50" width="340" height="190" as="geometry" />
        </mxCell>
        <mxCell id="AcUW_i01gj4ODNEYfbEC-1" value="# bando: String" style="text;strokeColor=none;fillColor=none;align=left;verticalAlign=top;spacingLeft=4;spacingRight=4;overflow=hidden;rotatable=0;points=[[0,0.5],[1,0.5]];portConstraint=eastwest;whiteSpace=wrap;html=1;" parent="stxOI4bzDLG80uCZGU0x-5" vertex="1">
          <mxGeometry y="40" width="340" height="26" as="geometry" />
        </mxCell>
        <mxCell id="llh7_zKv0ECWSXMCoc-f-8" value="# caracteristicas: Caracteristica" style="text;strokeColor=none;fillColor=none;align=left;verticalAlign=top;spacingLeft=4;spacingRight=4;overflow=hidden;rotatable=0;points=[[0,0.5],[1,0.5]];portConstraint=eastwest;whiteSpace=wrap;html=1;" parent="stxOI4bzDLG80uCZGU0x-5" vertex="1">
          <mxGeometry y="66" width="340" height="26" as="geometry" />
        </mxCell>
        <mxCell id="stxOI4bzDLG80uCZGU0x-8" value="" style="line;strokeWidth=1;fillColor=none;align=left;verticalAlign=middle;spacingTop=-1;spacingLeft=3;spacingRight=3;rotatable=0;labelPosition=right;points=[];portConstraint=eastwest;strokeColor=inherit;" parent="stxOI4bzDLG80uCZGU0x-5" vertex="1">
          <mxGeometry y="92" width="340" height="8" as="geometry" />
        </mxCell>
        <mxCell id="stxOI4bzDLG80uCZGU0x-10" value="&lt;i&gt;+ enfrentarse(UnidadCompetidor,UnidadCompetidor): int&lt;/i&gt;" style="text;strokeColor=none;fillColor=none;align=left;verticalAlign=top;spacingLeft=4;spacingRight=4;overflow=hidden;rotatable=0;points=[[0,0.5],[1,0.5]];portConstraint=eastwest;whiteSpace=wrap;html=1;" parent="stxOI4bzDLG80uCZGU0x-5" vertex="1">
          <mxGeometry y="100" width="340" height="30" as="geometry" />
        </mxCell>
        <mxCell id="llh7_zKv0ECWSXMCoc-f-4" value="- esMismoBando(UnidadCompetidor): boolean" style="text;strokeColor=none;fillColor=none;align=left;verticalAlign=top;spacingLeft=4;spacingRight=4;overflow=hidden;rotatable=0;points=[[0,0.5],[1,0.5]];portConstraint=eastwest;whiteSpace=wrap;html=1;" parent="stxOI4bzDLG80uCZGU0x-5" vertex="1">
          <mxGeometry y="130" width="340" height="30" as="geometry" />
        </mxCell>
        <mxCell id="AcUW_i01gj4ODNEYfbEC-2" value="- validarBando(String): String" style="text;strokeColor=none;fillColor=none;align=left;verticalAlign=top;spacingLeft=4;spacingRight=4;overflow=hidden;rotatable=0;points=[[0,0.5],[1,0.5]];portConstraint=eastwest;whiteSpace=wrap;html=1;" parent="stxOI4bzDLG80uCZGU0x-5" vertex="1">
          <mxGeometry y="160" width="340" height="30" as="geometry" />
        </mxCell>
        <mxCell id="stxOI4bzDLG80uCZGU0x-12" style="edgeStyle=orthogonalEdgeStyle;rounded=0;orthogonalLoop=1;jettySize=auto;html=1;endArrow=none;endFill=0;startArrow=diamondThin;startFill=0;exitX=0.443;exitY=0;exitDx=0;exitDy=0;exitPerimeter=0;" parent="1" source="stxOI4bzDLG80uCZGU0x-13" edge="1">
          <mxGeometry relative="1" as="geometry">
            <mxPoint x="530.0344827586209" y="437.1" as="sourcePoint" />
            <mxPoint x="550" y="19" as="targetPoint" />
            <Array as="points">
              <mxPoint x="597" y="19" />
            </Array>
          </mxGeometry>
        </mxCell>
        <mxCell id="stxOI4bzDLG80uCZGU0x-13" value="Liga" style="swimlane;fontStyle=1;align=center;verticalAlign=top;childLayout=stackLayout;horizontal=1;startSize=26;horizontalStack=0;resizeParent=1;resizeParentMax=0;resizeLast=0;collapsible=1;marginBottom=0;whiteSpace=wrap;html=1;" parent="1" vertex="1">
          <mxGeometry x="460" y="323" width="310" height="162" as="geometry" />
        </mxCell>
        <mxCell id="stxOI4bzDLG80uCZGU0x-14" value="- competidores: Set &amp;lt;UnidadCompetidor&amp;gt;&amp;nbsp;" style="text;strokeColor=none;fillColor=none;align=left;verticalAlign=top;spacingLeft=4;spacingRight=4;overflow=hidden;rotatable=0;points=[[0,0.5],[1,0.5]];portConstraint=eastwest;whiteSpace=wrap;html=1;" parent="stxOI4bzDLG80uCZGU0x-13" vertex="1">
          <mxGeometry y="26" width="310" height="26" as="geometry" />
        </mxCell>
        <mxCell id="stxOI4bzDLG80uCZGU0x-15" value="" style="line;strokeWidth=1;fillColor=none;align=left;verticalAlign=middle;spacingTop=-1;spacingLeft=3;spacingRight=3;rotatable=0;labelPosition=right;points=[];portConstraint=eastwest;strokeColor=inherit;" parent="stxOI4bzDLG80uCZGU0x-13" vertex="1">
          <mxGeometry y="52" width="310" height="8" as="geometry" />
        </mxCell>
        <mxCell id="b7jHJYOFLMWEE6eawsv5-22" value="+ agregar (UnidadCompetidor): void" style="text;strokeColor=none;fillColor=none;align=left;verticalAlign=top;spacingLeft=4;spacingRight=4;overflow=hidden;rotatable=0;points=[[0,0.5],[1,0.5]];portConstraint=eastwest;whiteSpace=wrap;html=1;" parent="stxOI4bzDLG80uCZGU0x-13" vertex="1">
          <mxGeometry y="60" width="310" height="26" as="geometry" />
        </mxCell>
        <mxCell id="6iUq0RLo29yA2gXEmjWx-31" value="- contarCompetidores(): int" style="text;strokeColor=none;fillColor=none;align=left;verticalAlign=top;spacingLeft=4;spacingRight=4;overflow=hidden;rotatable=0;points=[[0,0.5],[1,0.5]];portConstraint=eastwest;whiteSpace=wrap;html=1;" parent="stxOI4bzDLG80uCZGU0x-13" vertex="1">
          <mxGeometry y="86" width="310" height="24" as="geometry" />
        </mxCell>
        <mxCell id="stxOI4bzDLG80uCZGU0x-54" value="+ calcularPoderGrupo(): int" style="text;strokeColor=none;fillColor=none;align=left;verticalAlign=top;spacingLeft=4;spacingRight=4;overflow=hidden;rotatable=0;points=[[0,0.5],[1,0.5]];portConstraint=eastwest;whiteSpace=wrap;html=1;" parent="stxOI4bzDLG80uCZGU0x-13" vertex="1">
          <mxGeometry y="110" width="310" height="26" as="geometry" />
        </mxCell>
        <mxCell id="stxOI4bzDLG80uCZGU0x-16" value="+ enfrentarse(UnidadCompetidor, Caracteristica): int" style="text;strokeColor=none;fillColor=none;align=left;verticalAlign=top;spacingLeft=4;spacingRight=4;overflow=hidden;rotatable=0;points=[[0,0.5],[1,0.5]];portConstraint=eastwest;whiteSpace=wrap;html=1;" parent="stxOI4bzDLG80uCZGU0x-13" vertex="1">
          <mxGeometry y="136" width="310" height="26" as="geometry" />
        </mxCell>
        <mxCell id="b7jHJYOFLMWEE6eawsv5-19" style="edgeStyle=orthogonalEdgeStyle;rounded=0;orthogonalLoop=1;jettySize=auto;html=1;endArrow=none;endFill=0;" parent="1" source="stxOI4bzDLG80uCZGU0x-29" edge="1">
          <mxGeometry relative="1" as="geometry">
            <mxPoint x="360" y="280" as="targetPoint" />
            <Array as="points">
              <mxPoint x="215" y="280" />
            </Array>
          </mxGeometry>
        </mxCell>
        <mxCell id="stxOI4bzDLG80uCZGU0x-29" value="Competidor" style="swimlane;fontStyle=1;align=center;verticalAlign=top;childLayout=stackLayout;horizontal=1;startSize=26;horizontalStack=0;resizeParent=1;resizeParentMax=0;resizeLast=0;collapsible=1;marginBottom=0;whiteSpace=wrap;html=1;" parent="1" vertex="1">
          <mxGeometry x="60" y="320" width="310" height="120" as="geometry" />
        </mxCell>
        <mxCell id="stxOI4bzDLG80uCZGU0x-6" value="- nombreReal: String" style="text;strokeColor=none;fillColor=none;align=left;verticalAlign=top;spacingLeft=4;spacingRight=4;overflow=hidden;rotatable=0;points=[[0,0.5],[1,0.5]];portConstraint=eastwest;whiteSpace=wrap;html=1;" parent="stxOI4bzDLG80uCZGU0x-29" vertex="1">
          <mxGeometry y="26" width="310" height="24" as="geometry" />
        </mxCell>
        <mxCell id="b7jHJYOFLMWEE6eawsv5-17" value="- nombrePersonaje: String" style="text;strokeColor=none;fillColor=none;align=left;verticalAlign=top;spacingLeft=4;spacingRight=4;overflow=hidden;rotatable=0;points=[[0,0.5],[1,0.5]];portConstraint=eastwest;whiteSpace=wrap;html=1;" parent="stxOI4bzDLG80uCZGU0x-29" vertex="1">
          <mxGeometry y="50" width="310" height="24" as="geometry" />
        </mxCell>
        <mxCell id="stxOI4bzDLG80uCZGU0x-31" value="" style="line;strokeWidth=1;fillColor=none;align=left;verticalAlign=middle;spacingTop=-1;spacingLeft=3;spacingRight=3;rotatable=0;labelPosition=right;points=[];portConstraint=eastwest;strokeColor=inherit;" parent="stxOI4bzDLG80uCZGU0x-29" vertex="1">
          <mxGeometry y="74" width="310" height="14" as="geometry" />
        </mxCell>
        <mxCell id="stxOI4bzDLG80uCZGU0x-32" value="+ enfrentarse(UnidadCompetidor, Caracteristica): int" style="text;strokeColor=none;fillColor=none;align=left;verticalAlign=top;spacingLeft=4;spacingRight=4;overflow=hidden;rotatable=0;points=[[0,0.5],[1,0.5]];portConstraint=eastwest;whiteSpace=wrap;html=1;" parent="stxOI4bzDLG80uCZGU0x-29" vertex="1">
          <mxGeometry y="88" width="310" height="32" as="geometry" />
        </mxCell>
        <mxCell id="stxOI4bzDLG80uCZGU0x-33" style="edgeStyle=orthogonalEdgeStyle;rounded=0;orthogonalLoop=1;jettySize=auto;html=1;endArrow=block;endFill=0;exitX=0.25;exitY=0;exitDx=0;exitDy=0;" parent="1" source="stxOI4bzDLG80uCZGU0x-13" edge="1">
          <mxGeometry relative="1" as="geometry">
            <mxPoint x="485" y="319.01" as="sourcePoint" />
            <mxPoint x="360" y="150" as="targetPoint" />
            <Array as="points">
              <mxPoint x="537" y="320" />
              <mxPoint x="537" y="280" />
              <mxPoint x="359" y="280" />
            </Array>
          </mxGeometry>
        </mxCell>
        <mxCell id="stxOI4bzDLG80uCZGU0x-60" style="edgeStyle=orthogonalEdgeStyle;rounded=0;orthogonalLoop=1;jettySize=auto;html=1;endArrow=diamondThin;endFill=1;exitX=1;exitY=0;exitDx=0;exitDy=0;entryX=0;entryY=0.5;entryDx=0;entryDy=0;" parent="1" source="llh7_zKv0ECWSXMCoc-f-53" target="stxOI4bzDLG80uCZGU0x-10" edge="1">
          <mxGeometry relative="1" as="geometry">
            <mxPoint x="210" y="100" as="targetPoint" />
            <Array as="points">
              <mxPoint x="80" y="65" />
            </Array>
          </mxGeometry>
        </mxCell>
        <mxCell id="stxOI4bzDLG80uCZGU0x-56" value="Característica" style="swimlane;fontStyle=1;align=center;verticalAlign=top;childLayout=stackLayout;horizontal=1;startSize=26;horizontalStack=0;resizeParent=1;resizeParentMax=0;resizeLast=0;collapsible=1;marginBottom=0;whiteSpace=wrap;html=1;" parent="1" vertex="1">
          <mxGeometry x="-190" y="-20" width="270" height="194" as="geometry" />
        </mxCell>
        <mxCell id="llh7_zKv0ECWSXMCoc-f-51" value="&lt;div&gt;- velocidad: int&lt;br&gt;&lt;/div&gt;" style="text;strokeColor=none;fillColor=none;align=left;verticalAlign=top;spacingLeft=4;spacingRight=4;overflow=hidden;rotatable=0;points=[[0,0.5],[1,0.5]];portConstraint=eastwest;whiteSpace=wrap;html=1;" parent="stxOI4bzDLG80uCZGU0x-56" vertex="1">
          <mxGeometry y="26" width="270" height="24" as="geometry" />
        </mxCell>
        <mxCell id="llh7_zKv0ECWSXMCoc-f-52" value="&lt;div&gt;- fuerza: int&lt;br&gt;&lt;/div&gt;" style="text;strokeColor=none;fillColor=none;align=left;verticalAlign=top;spacingLeft=4;spacingRight=4;overflow=hidden;rotatable=0;points=[[0,0.5],[1,0.5]];portConstraint=eastwest;whiteSpace=wrap;html=1;" parent="stxOI4bzDLG80uCZGU0x-56" vertex="1">
          <mxGeometry y="50" width="270" height="24" as="geometry" />
        </mxCell>
        <mxCell id="llh7_zKv0ECWSXMCoc-f-53" value="&lt;span style=&quot;color: rgb(0, 0, 0); font-family: Helvetica; font-size: 12px; font-style: normal; font-variant-ligatures: normal; font-variant-caps: normal; font-weight: 400; letter-spacing: normal; orphans: 2; text-align: left; text-indent: 0px; text-transform: none; widows: 2; word-spacing: 0px; -webkit-text-stroke-width: 0px; background-color: rgb(251, 251, 251); text-decoration-thickness: initial; text-decoration-style: initial; text-decoration-color: initial; float: none; display: inline !important;&quot;&gt;&amp;nbsp;- resistencia: int&lt;/span&gt;" style="text;whiteSpace=wrap;html=1;" parent="stxOI4bzDLG80uCZGU0x-56" vertex="1">
          <mxGeometry y="74" width="270" height="28" as="geometry" />
        </mxCell>
        <mxCell id="llh7_zKv0ECWSXMCoc-f-54" value="&lt;span style=&quot;color: rgb(0, 0, 0); font-family: Helvetica; font-size: 12px; font-style: normal; font-variant-ligatures: normal; font-variant-caps: normal; font-weight: 400; letter-spacing: normal; orphans: 2; text-align: left; text-indent: 0px; text-transform: none; widows: 2; word-spacing: 0px; -webkit-text-stroke-width: 0px; background-color: rgb(251, 251, 251); text-decoration-thickness: initial; text-decoration-style: initial; text-decoration-color: initial; float: none; display: inline !important;&quot;&gt;&amp;nbsp;- destreza: int&lt;/span&gt;" style="text;whiteSpace=wrap;html=1;" parent="stxOI4bzDLG80uCZGU0x-56" vertex="1">
          <mxGeometry y="102" width="270" height="28" as="geometry" />
        </mxCell>
        <mxCell id="stxOI4bzDLG80uCZGU0x-58" value="" style="line;strokeWidth=1;fillColor=none;align=left;verticalAlign=middle;spacingTop=-1;spacingLeft=3;spacingRight=3;rotatable=0;labelPosition=right;points=[];portConstraint=eastwest;strokeColor=inherit;" parent="stxOI4bzDLG80uCZGU0x-56" vertex="1">
          <mxGeometry y="130" width="270" height="10" as="geometry" />
        </mxCell>
        <mxCell id="llh7_zKv0ECWSXMCoc-f-57" value="&lt;span style=&quot;color: rgb(0, 0, 0); font-family: Helvetica; font-size: 12px; font-style: normal; font-variant-ligatures: normal; font-variant-caps: normal; font-weight: 400; letter-spacing: normal; orphans: 2; text-align: left; text-indent: 0px; text-transform: none; widows: 2; word-spacing: 0px; -webkit-text-stroke-width: 0px; background-color: rgb(251, 251, 251); text-decoration-thickness: initial; text-decoration-style: initial; text-decoration-color: initial; float: none; display: inline !important;&quot;&gt;&amp;nbsp;-&amp;nbsp; compararCaracteristica(): int&lt;/span&gt;" style="text;whiteSpace=wrap;html=1;fillColor=#a20025;fontColor=#ffffff;strokeColor=#6F0000;" parent="stxOI4bzDLG80uCZGU0x-56" vertex="1">
          <mxGeometry y="140" width="270" height="24" as="geometry" />
        </mxCell>
        <mxCell id="llh7_zKv0ECWSXMCoc-f-47" value="-&amp;nbsp; validarCaractesticas(int, String): int" style="text;strokeColor=#6F0000;fillColor=#a20025;align=left;verticalAlign=top;spacingLeft=4;spacingRight=4;overflow=hidden;rotatable=0;points=[[0,0.5],[1,0.5]];portConstraint=eastwest;whiteSpace=wrap;html=1;fontColor=#ffffff;" parent="stxOI4bzDLG80uCZGU0x-56" vertex="1">
          <mxGeometry y="164" width="270" height="30" as="geometry" />
        </mxCell>
        <mxCell id="H1fsQ4VHug_uVCeDuns9-3" style="edgeStyle=orthogonalEdgeStyle;rounded=0;orthogonalLoop=1;jettySize=auto;html=1;startArrow=diamondThin;startFill=0;endArrow=none;endFill=0;exitX=1.002;exitY=0.961;exitDx=0;exitDy=0;exitPerimeter=0;" parent="1" source="H1fsQ4VHug_uVCeDuns9-2" edge="1">
          <mxGeometry relative="1" as="geometry">
            <mxPoint x="60" y="400" as="targetPoint" />
            <Array as="points">
              <mxPoint x="-130" y="400" />
              <mxPoint x="60" y="401" />
            </Array>
          </mxGeometry>
        </mxCell>
        <mxCell id="H1fsQ4VHug_uVCeDuns9-5" style="edgeStyle=orthogonalEdgeStyle;rounded=0;orthogonalLoop=1;jettySize=auto;html=1;entryX=0;entryY=0.5;entryDx=0;entryDy=0;endArrow=none;endFill=0;startArrow=diamondThin;startFill=0;" parent="1" source="stxOI4bzDLG80uCZGU0x-63" target="stxOI4bzDLG80uCZGU0x-54" edge="1">
          <mxGeometry relative="1" as="geometry">
            <Array as="points">
              <mxPoint x="460" y="490" />
            </Array>
          </mxGeometry>
        </mxCell>
        <mxCell id="stxOI4bzDLG80uCZGU0x-63" value="SistemaHeroesVillanos" style="swimlane;fontStyle=1;align=center;verticalAlign=top;childLayout=stackLayout;horizontal=1;startSize=26;horizontalStack=0;resizeParent=1;resizeParentMax=0;resizeLast=0;collapsible=1;marginBottom=0;whiteSpace=wrap;html=1;" parent="1" vertex="1">
          <mxGeometry x="-600" y="323" width="280" height="354" as="geometry" />
        </mxCell>
        <mxCell id="stxOI4bzDLG80uCZGU0x-69" value="- competidores: List &amp;lt;Competidor&amp;gt;" style="text;strokeColor=none;fillColor=none;align=left;verticalAlign=top;spacingLeft=4;spacingRight=4;overflow=hidden;rotatable=0;points=[[0,0.5],[1,0.5]];portConstraint=eastwest;whiteSpace=wrap;html=1;" parent="stxOI4bzDLG80uCZGU0x-63" vertex="1">
          <mxGeometry y="26" width="280" height="26" as="geometry" />
        </mxCell>
        <mxCell id="H1fsQ4VHug_uVCeDuns9-2" value="- ligas: List &amp;lt;Liga&amp;gt;" style="text;strokeColor=none;fillColor=none;align=left;verticalAlign=top;spacingLeft=4;spacingRight=4;overflow=hidden;rotatable=0;points=[[0,0.5],[1,0.5]];portConstraint=eastwest;whiteSpace=wrap;html=1;" parent="stxOI4bzDLG80uCZGU0x-63" vertex="1">
          <mxGeometry y="52" width="280" height="26" as="geometry" />
        </mxCell>
        <mxCell id="stxOI4bzDLG80uCZGU0x-70" value="" style="line;strokeWidth=1;fillColor=none;align=left;verticalAlign=middle;spacingTop=-1;spacingLeft=3;spacingRight=3;rotatable=0;labelPosition=right;points=[];portConstraint=eastwest;strokeColor=inherit;" parent="stxOI4bzDLG80uCZGU0x-63" vertex="1">
          <mxGeometry y="78" width="280" height="8" as="geometry" />
        </mxCell>
        <mxCell id="stxOI4bzDLG80uCZGU0x-72" value="- mensajeBienvenida(): void" style="text;strokeColor=none;fillColor=none;align=left;verticalAlign=top;spacingLeft=4;spacingRight=4;overflow=hidden;rotatable=0;points=[[0,0.5],[1,0.5]];portConstraint=eastwest;whiteSpace=wrap;html=1;" parent="stxOI4bzDLG80uCZGU0x-63" vertex="1">
          <mxGeometry y="86" width="280" height="28" as="geometry" />
        </mxCell>
        <mxCell id="stxOI4bzDLG80uCZGU0x-71" value="+ mostrarMenu(): void" style="text;strokeColor=none;fillColor=#2EFF9D;align=left;verticalAlign=top;spacingLeft=4;spacingRight=4;overflow=hidden;rotatable=0;points=[[0,0.5],[1,0.5]];portConstraint=eastwest;whiteSpace=wrap;html=1;" parent="stxOI4bzDLG80uCZGU0x-63" vertex="1">
          <mxGeometry y="114" width="280" height="26" as="geometry" />
        </mxCell>
        <mxCell id="stxOI4bzDLG80uCZGU0x-74" value="- administrarPersonajes(): boolean" style="text;strokeColor=none;fillColor=#2EFF9D;align=left;verticalAlign=top;spacingLeft=4;spacingRight=4;overflow=hidden;rotatable=0;points=[[0,0.5],[1,0.5]];portConstraint=eastwest;whiteSpace=wrap;html=1;" parent="stxOI4bzDLG80uCZGU0x-63" vertex="1">
          <mxGeometry y="140" width="280" height="26" as="geometry" />
        </mxCell>
        <mxCell id="stxOI4bzDLG80uCZGU0x-75" value="- administrarLigas(): boolean" style="text;strokeColor=none;fillColor=#2EFF9D;align=left;verticalAlign=top;spacingLeft=4;spacingRight=4;overflow=hidden;rotatable=0;points=[[0,0.5],[1,0.5]];portConstraint=eastwest;whiteSpace=wrap;html=1;" parent="stxOI4bzDLG80uCZGU0x-63" vertex="1">
          <mxGeometry y="166" width="280" height="26" as="geometry" />
        </mxCell>
        <mxCell id="stxOI4bzDLG80uCZGU0x-76" value="- realizarCombate(): boolean" style="text;strokeColor=none;fillColor=#2EFF9D;align=left;verticalAlign=top;spacingLeft=4;spacingRight=4;overflow=hidden;rotatable=0;points=[[0,0.5],[1,0.5]];portConstraint=eastwest;whiteSpace=wrap;html=1;" parent="stxOI4bzDLG80uCZGU0x-63" vertex="1">
          <mxGeometry y="192" width="280" height="26" as="geometry" />
        </mxCell>
        <mxCell id="stxOI4bzDLG80uCZGU0x-73" value="- generarReporte(): boolean" style="text;strokeColor=none;fillColor=#2EFF9D;align=left;verticalAlign=top;spacingLeft=4;spacingRight=4;overflow=hidden;rotatable=0;points=[[0,0.5],[1,0.5]];portConstraint=eastwest;whiteSpace=wrap;html=1;" parent="stxOI4bzDLG80uCZGU0x-63" vertex="1">
          <mxGeometry y="218" width="280" height="26" as="geometry" />
        </mxCell>
        <mxCell id="B4OTAOAccD99HmhTTiIt-1" value="+ esGanador(UnidadaCompetidor, Caracteristica): Boolean" style="text;strokeColor=none;fillColor=none;align=left;verticalAlign=top;spacingLeft=4;spacingRight=4;overflow=hidden;rotatable=0;points=[[0,0.5],[1,0.5]];portConstraint=eastwest;whiteSpace=wrap;html=1;" vertex="1" parent="stxOI4bzDLG80uCZGU0x-63">
          <mxGeometry y="244" width="280" height="40" as="geometry" />
        </mxCell>
        <mxCell id="H1fsQ4VHug_uVCeDuns9-10" value="- ordenamiento(UnidadCompetidor, Comparator): List &amp;lt;UnidadCompetidor&amp;gt;" style="text;strokeColor=none;fillColor=none;align=left;verticalAlign=top;spacingLeft=4;spacingRight=4;overflow=hidden;rotatable=0;points=[[0,0.5],[1,0.5]];portConstraint=eastwest;whiteSpace=wrap;html=1;" parent="stxOI4bzDLG80uCZGU0x-63" vertex="1">
          <mxGeometry y="284" width="280" height="40" as="geometry" />
        </mxCell>
        <mxCell id="6iUq0RLo29yA2gXEmjWx-5" value="- agregarHeroe(): boolean" style="text;strokeColor=none;fillColor=none;align=left;verticalAlign=top;spacingLeft=4;spacingRight=4;overflow=hidden;rotatable=0;points=[[0,0.5],[1,0.5]];portConstraint=eastwest;whiteSpace=wrap;html=1;" parent="stxOI4bzDLG80uCZGU0x-63" vertex="1">
          <mxGeometry y="324" width="280" height="30" as="geometry" />
        </mxCell>
        <mxCell id="H1fsQ4VHug_uVCeDuns9-6" value="Arbitro" style="swimlane;fontStyle=1;align=center;verticalAlign=top;childLayout=stackLayout;horizontal=1;startSize=26;horizontalStack=0;resizeParent=1;resizeParentMax=0;resizeLast=0;collapsible=1;marginBottom=0;whiteSpace=wrap;html=1;fillColor=none;" parent="1" vertex="1">
          <mxGeometry x="-160" y="610" width="340" height="100" as="geometry" />
        </mxCell>
        <mxCell id="H1fsQ4VHug_uVCeDuns9-9" value="" style="line;strokeWidth=1;fillColor=none;align=left;verticalAlign=middle;spacingTop=-1;spacingLeft=3;spacingRight=3;rotatable=0;labelPosition=right;points=[];portConstraint=eastwest;strokeColor=inherit;" parent="H1fsQ4VHug_uVCeDuns9-6" vertex="1">
          <mxGeometry y="26" width="340" height="8" as="geometry" />
        </mxCell>
        <mxCell id="tYWx_msfVDKdeJvFBhLB-1" value="+ obtenerResultadoDuelos(): List&amp;lt;UnidadCompetidor&amp;gt;" style="text;fillColor=#FF6536;align=left;verticalAlign=top;spacingLeft=4;spacingRight=4;overflow=hidden;rotatable=0;points=[[0,0.5],[1,0.5]];portConstraint=eastwest;whiteSpace=wrap;html=1;" parent="H1fsQ4VHug_uVCeDuns9-6" vertex="1">
          <mxGeometry y="34" width="340" height="28" as="geometry" />
        </mxCell>
        <mxCell id="H1fsQ4VHug_uVCeDuns9-40" value="- esGanador(UnidadCompetidor, Caracteristica): boolean" style="text;strokeColor=none;fillColor=#FF6536;align=left;verticalAlign=top;spacingLeft=4;spacingRight=4;overflow=hidden;rotatable=0;points=[[0,0.5],[1,0.5]];portConstraint=eastwest;whiteSpace=wrap;html=1;" parent="H1fsQ4VHug_uVCeDuns9-6" vertex="1">
          <mxGeometry y="62" width="340" height="38" as="geometry" />
        </mxCell>
        <mxCell id="H1fsQ4VHug_uVCeDuns9-22" value="ArchivoLigas" style="swimlane;fontStyle=1;align=center;verticalAlign=top;childLayout=stackLayout;horizontal=1;startSize=26;horizontalStack=0;resizeParent=1;resizeParentMax=0;resizeLast=0;collapsible=1;marginBottom=0;whiteSpace=wrap;html=1;" parent="1" vertex="1">
          <mxGeometry x="-1340" y="510" width="290" height="100" as="geometry" />
        </mxCell>
        <mxCell id="H1fsQ4VHug_uVCeDuns9-23" value="- nombre: String" style="text;strokeColor=none;fillColor=none;align=left;verticalAlign=top;spacingLeft=4;spacingRight=4;overflow=hidden;rotatable=0;points=[[0,0.5],[1,0.5]];portConstraint=eastwest;whiteSpace=wrap;html=1;" parent="H1fsQ4VHug_uVCeDuns9-22" vertex="1">
          <mxGeometry y="26" width="290" height="26" as="geometry" />
        </mxCell>
        <mxCell id="H1fsQ4VHug_uVCeDuns9-24" value="" style="line;strokeWidth=1;fillColor=none;align=left;verticalAlign=middle;spacingTop=-1;spacingLeft=3;spacingRight=3;rotatable=0;labelPosition=right;points=[];portConstraint=eastwest;strokeColor=inherit;" parent="H1fsQ4VHug_uVCeDuns9-22" vertex="1">
          <mxGeometry y="52" width="290" height="8" as="geometry" />
        </mxCell>
        <mxCell id="H1fsQ4VHug_uVCeDuns9-25" value="+ leer(): Set&amp;lt;Liga&amp;gt;&amp;nbsp;" style="text;strokeColor=none;fillColor=none;align=left;verticalAlign=top;spacingLeft=4;spacingRight=4;overflow=hidden;rotatable=0;points=[[0,0.5],[1,0.5]];portConstraint=eastwest;whiteSpace=wrap;html=1;" parent="H1fsQ4VHug_uVCeDuns9-22" vertex="1">
          <mxGeometry y="60" width="290" height="40" as="geometry" />
        </mxCell>
        <mxCell id="H1fsQ4VHug_uVCeDuns9-26" value="ArchivoPersonajes" style="swimlane;fontStyle=1;align=center;verticalAlign=top;childLayout=stackLayout;horizontal=1;startSize=26;horizontalStack=0;resizeParent=1;resizeParentMax=0;resizeLast=0;collapsible=1;marginBottom=0;whiteSpace=wrap;html=1;" parent="1" vertex="1">
          <mxGeometry x="-1010" y="510" width="290" height="100" as="geometry" />
        </mxCell>
        <mxCell id="H1fsQ4VHug_uVCeDuns9-27" value="- nombre: String" style="text;strokeColor=none;fillColor=none;align=left;verticalAlign=top;spacingLeft=4;spacingRight=4;overflow=hidden;rotatable=0;points=[[0,0.5],[1,0.5]];portConstraint=eastwest;whiteSpace=wrap;html=1;" parent="H1fsQ4VHug_uVCeDuns9-26" vertex="1">
          <mxGeometry y="26" width="290" height="26" as="geometry" />
        </mxCell>
        <mxCell id="H1fsQ4VHug_uVCeDuns9-28" value="" style="line;strokeWidth=1;fillColor=none;align=left;verticalAlign=middle;spacingTop=-1;spacingLeft=3;spacingRight=3;rotatable=0;labelPosition=right;points=[];portConstraint=eastwest;strokeColor=inherit;" parent="H1fsQ4VHug_uVCeDuns9-26" vertex="1">
          <mxGeometry y="52" width="290" height="8" as="geometry" />
        </mxCell>
        <mxCell id="H1fsQ4VHug_uVCeDuns9-29" value="+ leer(): Set&amp;lt;Competidor&amp;gt;&amp;nbsp;" style="text;strokeColor=none;fillColor=none;align=left;verticalAlign=top;spacingLeft=4;spacingRight=4;overflow=hidden;rotatable=0;points=[[0,0.5],[1,0.5]];portConstraint=eastwest;whiteSpace=wrap;html=1;" parent="H1fsQ4VHug_uVCeDuns9-26" vertex="1">
          <mxGeometry y="60" width="290" height="40" as="geometry" />
        </mxCell>
        <mxCell id="H1fsQ4VHug_uVCeDuns9-30" value="ArchivoSistemaHeroesVillanos" style="swimlane;fontStyle=1;align=center;verticalAlign=top;childLayout=stackLayout;horizontal=1;startSize=26;horizontalStack=0;resizeParent=1;resizeParentMax=0;resizeLast=0;collapsible=1;marginBottom=0;whiteSpace=wrap;html=1;" parent="1" vertex="1">
          <mxGeometry x="-1150" y="300" width="290" height="126" as="geometry" />
        </mxCell>
        <mxCell id="H1fsQ4VHug_uVCeDuns9-31" value="- nombreArchivoLigas: String" style="text;strokeColor=none;fillColor=none;align=left;verticalAlign=top;spacingLeft=4;spacingRight=4;overflow=hidden;rotatable=0;points=[[0,0.5],[1,0.5]];portConstraint=eastwest;whiteSpace=wrap;html=1;" parent="H1fsQ4VHug_uVCeDuns9-30" vertex="1">
          <mxGeometry y="26" width="290" height="26" as="geometry" />
        </mxCell>
        <mxCell id="H1fsQ4VHug_uVCeDuns9-34" value="- nombreArchPersonajes: String" style="text;strokeColor=none;fillColor=none;align=left;verticalAlign=top;spacingLeft=4;spacingRight=4;overflow=hidden;rotatable=0;points=[[0,0.5],[1,0.5]];portConstraint=eastwest;whiteSpace=wrap;html=1;" parent="H1fsQ4VHug_uVCeDuns9-30" vertex="1">
          <mxGeometry y="52" width="290" height="26" as="geometry" />
        </mxCell>
        <mxCell id="H1fsQ4VHug_uVCeDuns9-32" value="" style="line;strokeWidth=1;fillColor=none;align=left;verticalAlign=middle;spacingTop=-1;spacingLeft=3;spacingRight=3;rotatable=0;labelPosition=right;points=[];portConstraint=eastwest;strokeColor=inherit;" parent="H1fsQ4VHug_uVCeDuns9-30" vertex="1">
          <mxGeometry y="78" width="290" height="8" as="geometry" />
        </mxCell>
        <mxCell id="H1fsQ4VHug_uVCeDuns9-33" value="+ leer():&amp;nbsp;SistemaHeroesVillanos" style="text;strokeColor=none;fillColor=none;align=left;verticalAlign=top;spacingLeft=4;spacingRight=4;overflow=hidden;rotatable=0;points=[[0,0.5],[1,0.5]];portConstraint=eastwest;whiteSpace=wrap;html=1;" parent="H1fsQ4VHug_uVCeDuns9-30" vertex="1">
          <mxGeometry y="86" width="290" height="40" as="geometry" />
        </mxCell>
        <mxCell id="b7jHJYOFLMWEE6eawsv5-2" value="&lt;i&gt;&amp;lt;&amp;lt;enumeration&amp;gt;&amp;gt;&lt;br&gt;&lt;/i&gt;Bandos" style="swimlane;fontStyle=1;align=center;verticalAlign=top;childLayout=stackLayout;horizontal=1;startSize=40;horizontalStack=0;resizeParent=1;resizeParentMax=0;resizeLast=0;collapsible=1;marginBottom=0;whiteSpace=wrap;html=1;" parent="1" vertex="1">
          <mxGeometry x="680" y="-20" width="190" height="80" as="geometry" />
        </mxCell>
        <mxCell id="b7jHJYOFLMWEE6eawsv5-3" value="Heroe&lt;br&gt;Villano" style="text;strokeColor=none;fillColor=none;align=left;verticalAlign=top;spacingLeft=4;spacingRight=4;overflow=hidden;rotatable=0;points=[[0,0.5],[1,0.5]];portConstraint=eastwest;whiteSpace=wrap;html=1;" parent="b7jHJYOFLMWEE6eawsv5-2" vertex="1">
          <mxGeometry y="40" width="190" height="40" as="geometry" />
        </mxCell>
        <mxCell id="b7jHJYOFLMWEE6eawsv5-10" style="edgeStyle=orthogonalEdgeStyle;rounded=0;orthogonalLoop=1;jettySize=auto;html=1;entryX=0;entryY=0.25;entryDx=0;entryDy=0;entryPerimeter=0;" parent="1" source="stxOI4bzDLG80uCZGU0x-5" target="b7jHJYOFLMWEE6eawsv5-2" edge="1">
          <mxGeometry relative="1" as="geometry">
            <mxPoint x="670" as="targetPoint" />
            <Array as="points">
              <mxPoint x="560" />
              <mxPoint x="560" />
            </Array>
          </mxGeometry>
        </mxCell>
        <mxCell id="b7jHJYOFLMWEE6eawsv5-11" value="1" style="text;html=1;align=center;verticalAlign=middle;resizable=0;points=[];autosize=1;strokeColor=none;fillColor=none;" parent="1" vertex="1">
          <mxGeometry x="510" y="-30" width="30" height="30" as="geometry" />
        </mxCell>
        <mxCell id="b7jHJYOFLMWEE6eawsv5-12" value="1" style="text;html=1;align=center;verticalAlign=middle;resizable=0;points=[];autosize=1;strokeColor=none;fillColor=none;" parent="1" vertex="1">
          <mxGeometry x="650" y="-30" width="30" height="30" as="geometry" />
        </mxCell>
        <mxCell id="b7jHJYOFLMWEE6eawsv5-20" value="1" style="text;html=1;align=center;verticalAlign=middle;resizable=0;points=[];autosize=1;strokeColor=none;fillColor=none;" parent="1" vertex="1">
          <mxGeometry x="180" y="23" width="30" height="30" as="geometry" />
        </mxCell>
        <mxCell id="b7jHJYOFLMWEE6eawsv5-21" value="1" style="text;html=1;align=center;verticalAlign=middle;resizable=0;points=[];autosize=1;strokeColor=none;fillColor=none;" parent="1" vertex="1">
          <mxGeometry x="75" y="23" width="30" height="30" as="geometry" />
        </mxCell>
        <mxCell id="b7jHJYOFLMWEE6eawsv5-23" value="1" style="text;html=1;align=center;verticalAlign=middle;resizable=0;points=[];autosize=1;strokeColor=none;fillColor=none;" parent="1" vertex="1">
          <mxGeometry x="-320" y="365" width="30" height="30" as="geometry" />
        </mxCell>
        <mxCell id="b7jHJYOFLMWEE6eawsv5-24" value="1...*" style="text;html=1;align=center;verticalAlign=middle;resizable=0;points=[];autosize=1;strokeColor=none;fillColor=none;" parent="1" vertex="1">
          <mxGeometry x="20" y="365" width="40" height="30" as="geometry" />
        </mxCell>
        <mxCell id="b7jHJYOFLMWEE6eawsv5-26" value="&lt;br&gt;revisar si la clase arbitro se usa:&amp;nbsp;&lt;br&gt;&lt;br&gt;- esGanador hay que corregirlo según lucas ya que no podemos invocar Competidor/Liga.esGanador()&lt;br&gt;&lt;br&gt;esto hacerlo con el Comparator" style="ellipse;shape=cloud;whiteSpace=wrap;html=1;" parent="1" vertex="1">
          <mxGeometry x="-270" y="760" width="530" height="220" as="geometry" />
        </mxCell>
        <mxCell id="b7jHJYOFLMWEE6eawsv5-27" value="1" style="text;html=1;align=center;verticalAlign=middle;resizable=0;points=[];autosize=1;strokeColor=none;fillColor=none;" parent="1" vertex="1">
          <mxGeometry x="-320" y="460" width="30" height="30" as="geometry" />
        </mxCell>
        <mxCell id="b7jHJYOFLMWEE6eawsv5-28" value="0...*" style="text;html=1;align=center;verticalAlign=middle;resizable=0;points=[];autosize=1;strokeColor=none;fillColor=none;" parent="1" vertex="1">
          <mxGeometry x="420" y="460" width="40" height="30" as="geometry" />
        </mxCell>
        <mxCell id="6iUq0RLo29yA2gXEmjWx-7" value="marvel.enfrentarse(thanos,fuerza)" style="text;html=1;align=center;verticalAlign=middle;resizable=0;points=[];autosize=1;strokeColor=none;fillColor=none;" parent="1" vertex="1">
          <mxGeometry x="920" y="426" width="200" height="30" as="geometry" />
        </mxCell>
        <mxCell id="6iUq0RLo29yA2gXEmjWx-8" value="" style="shape=waypoint;sketch=0;size=6;pointerEvents=1;points=[];fillColor=none;resizable=0;rotatable=0;perimeter=centerPerimeter;snapToPoint=1;" parent="1" vertex="1">
          <mxGeometry x="960" y="490" width="40" height="40" as="geometry" />
        </mxCell>
        <mxCell id="6iUq0RLo29yA2gXEmjWx-9" value="" style="shape=waypoint;sketch=0;size=6;pointerEvents=1;points=[];fillColor=none;resizable=0;rotatable=0;perimeter=centerPerimeter;snapToPoint=1;" parent="1" vertex="1">
          <mxGeometry x="979" y="490" width="40" height="40" as="geometry" />
        </mxCell>
        <mxCell id="6iUq0RLo29yA2gXEmjWx-10" value="" style="shape=waypoint;sketch=0;size=6;pointerEvents=1;points=[];fillColor=none;resizable=0;rotatable=0;perimeter=centerPerimeter;snapToPoint=1;" parent="1" vertex="1">
          <mxGeometry x="1000" y="490" width="40" height="40" as="geometry" />
        </mxCell>
        <mxCell id="6iUq0RLo29yA2gXEmjWx-11" value="" style="shape=waypoint;sketch=0;size=6;pointerEvents=1;points=[];fillColor=none;resizable=0;rotatable=0;perimeter=centerPerimeter;snapToPoint=1;" parent="1" vertex="1">
          <mxGeometry x="1019" y="490" width="40" height="40" as="geometry" />
        </mxCell>
        <mxCell id="6iUq0RLo29yA2gXEmjWx-12" value="&lt;span style=&quot;color: rgb(240, 240, 240); font-family: Helvetica; font-size: 12px; font-style: normal; font-variant-ligatures: normal; font-variant-caps: normal; font-weight: 400; letter-spacing: normal; orphans: 2; text-align: left; text-indent: 0px; text-transform: none; widows: 2; word-spacing: 0px; -webkit-text-stroke-width: 0px; background-color: rgb(42, 42, 42); text-decoration-thickness: initial; text-decoration-style: initial; text-decoration-color: initial; float: none; display: inline !important;&quot;&gt;+ calcularPoderGrupo(Caracteristica): int&lt;/span&gt;" style="text;whiteSpace=wrap;html=1;" parent="1" vertex="1">
          <mxGeometry x="920" y="386" width="250" height="40" as="geometry" />
        </mxCell>
        <mxCell id="6iUq0RLo29yA2gXEmjWx-13" value="esGanador" style="text;html=1;align=center;verticalAlign=middle;resizable=0;points=[];autosize=1;strokeColor=none;fillColor=none;" parent="1" vertex="1">
          <mxGeometry x="980" y="456" width="80" height="30" as="geometry" />
        </mxCell>
        <mxCell id="6iUq0RLo29yA2gXEmjWx-14" value="+ agregarCompetidor (UnidadCompetidor): boolean" style="text;strokeColor=none;fillColor=none;align=left;verticalAlign=top;spacingLeft=4;spacingRight=4;overflow=hidden;rotatable=0;points=[[0,0.5],[1,0.5]];portConstraint=eastwest;whiteSpace=wrap;html=1;" parent="1" vertex="1">
          <mxGeometry x="890" y="350" width="310" height="26" as="geometry" />
        </mxCell>
        <mxCell id="6iUq0RLo29yA2gXEmjWx-15" value="" style="ellipse;whiteSpace=wrap;html=1;" parent="1" vertex="1">
          <mxGeometry x="-620" y="-270" width="190" height="170" as="geometry" />
        </mxCell>
        <mxCell id="6iUq0RLo29yA2gXEmjWx-16" value="" style="ellipse;whiteSpace=wrap;html=1;" parent="1" vertex="1">
          <mxGeometry x="-600" y="-210" width="60" height="50" as="geometry" />
        </mxCell>
        <mxCell id="6iUq0RLo29yA2gXEmjWx-17" value="" style="ellipse;whiteSpace=wrap;html=1;" parent="1" vertex="1">
          <mxGeometry x="-510" y="-210" width="60" height="50" as="geometry" />
        </mxCell>
        <mxCell id="6iUq0RLo29yA2gXEmjWx-18" value="" style="shape=waypoint;sketch=0;size=6;pointerEvents=1;points=[];fillColor=none;resizable=0;rotatable=0;perimeter=centerPerimeter;snapToPoint=1;" parent="1" vertex="1">
          <mxGeometry x="-600" y="-205" width="40" height="40" as="geometry" />
        </mxCell>
        <mxCell id="6iUq0RLo29yA2gXEmjWx-19" value="" style="shape=waypoint;sketch=0;size=6;pointerEvents=1;points=[];fillColor=none;resizable=0;rotatable=0;perimeter=centerPerimeter;snapToPoint=1;" parent="1" vertex="1">
          <mxGeometry x="-500" y="-205" width="40" height="40" as="geometry" />
        </mxCell>
        <mxCell id="6iUq0RLo29yA2gXEmjWx-23" value="A" style="text;html=1;align=center;verticalAlign=middle;resizable=0;points=[];autosize=1;strokeColor=none;fillColor=none;" parent="1" vertex="1">
          <mxGeometry x="-585" y="-315" width="30" height="30" as="geometry" />
        </mxCell>
        <mxCell id="6iUq0RLo29yA2gXEmjWx-24" value="Fuerza" style="text;html=1;align=center;verticalAlign=middle;resizable=0;points=[];autosize=1;strokeColor=none;fillColor=none;" parent="1" vertex="1">
          <mxGeometry x="-510" y="-315" width="60" height="30" as="geometry" />
        </mxCell>
        <mxCell id="6iUq0RLo29yA2gXEmjWx-25" value="liga padre" style="text;html=1;align=center;verticalAlign=middle;resizable=0;points=[];autosize=1;strokeColor=none;fillColor=none;" parent="1" vertex="1">
          <mxGeometry x="-565" y="-264" width="80" height="30" as="geometry" />
        </mxCell>
        <mxCell id="6iUq0RLo29yA2gXEmjWx-26" value="liga hija 2" style="text;html=1;align=center;verticalAlign=middle;resizable=0;points=[];autosize=1;strokeColor=none;fillColor=none;" parent="1" vertex="1">
          <mxGeometry x="-605" y="-160" width="70" height="30" as="geometry" />
        </mxCell>
        <mxCell id="6iUq0RLo29yA2gXEmjWx-27" value="liga hija 1" style="text;html=1;align=center;verticalAlign=middle;resizable=0;points=[];autosize=1;strokeColor=none;fillColor=none;" parent="1" vertex="1">
          <mxGeometry x="-515" y="-160" width="70" height="30" as="geometry" />
        </mxCell>
        <mxCell id="6iUq0RLo29yA2gXEmjWx-28" value="(fuerza liga hija 1 + fuerza liga hija 2) / (cantidad de personas que tiene la liga padre) -&amp;gt; método de árbol" style="text;html=1;align=center;verticalAlign=middle;resizable=0;points=[];autosize=1;strokeColor=none;fillColor=none;" parent="1" vertex="1">
          <mxGeometry x="-632.5" y="-370" width="580" height="30" as="geometry" />
        </mxCell>
        <mxCell id="6iUq0RLo29yA2gXEmjWx-29" value="Se enfrenta todo" style="text;html=1;align=center;verticalAlign=middle;resizable=0;points=[];autosize=1;strokeColor=none;fillColor=none;" parent="1" vertex="1">
          <mxGeometry x="-580" y="-130" width="110" height="30" as="geometry" />
        </mxCell>
        <mxCell id="6iUq0RLo29yA2gXEmjWx-33" style="edgeStyle=orthogonalEdgeStyle;rounded=0;orthogonalLoop=1;jettySize=auto;html=1;entryX=0;entryY=0.75;entryDx=0;entryDy=0;exitX=0.13;exitY=0.77;exitDx=0;exitDy=0;exitPerimeter=0;" parent="1" source="6iUq0RLo29yA2gXEmjWx-32" target="llh7_zKv0ECWSXMCoc-f-57" edge="1">
          <mxGeometry relative="1" as="geometry">
            <Array as="points">
              <mxPoint x="-240" y="286" />
              <mxPoint x="-240" y="132" />
              <mxPoint x="-210" y="132" />
              <mxPoint x="-210" y="138" />
            </Array>
          </mxGeometry>
        </mxCell>
        <mxCell id="6iUq0RLo29yA2gXEmjWx-32" value="Ver qué onda con comparator. Se hacen o no los métodos" style="ellipse;shape=cloud;whiteSpace=wrap;html=1;" parent="1" vertex="1">
          <mxGeometry x="-200" y="170" width="190" height="150" as="geometry" />
        </mxCell>
        <mxCell id="6iUq0RLo29yA2gXEmjWx-34" value="realizar combate() -&amp;gt; esMismoBando() -&amp;gt;&amp;nbsp; enfrentarse()" style="text;html=1;align=center;verticalAlign=middle;resizable=0;points=[];autosize=1;strokeColor=none;fillColor=none;" parent="1" vertex="1">
          <mxGeometry y="174" width="320" height="30" as="geometry" />
        </mxCell>
        <mxCell id="6iUq0RLo29yA2gXEmjWx-35" value="exception" style="text;html=1;align=center;verticalAlign=middle;resizable=0;points=[];autosize=1;strokeColor=none;fillColor=none;" parent="1" vertex="1">
          <mxGeometry x="240" y="200" width="70" height="30" as="geometry" />
        </mxCell>
        <mxCell id="6iUq0RLo29yA2gXEmjWx-36" value="-&amp;gt;" style="text;html=1;align=center;verticalAlign=middle;resizable=0;points=[];autosize=1;strokeColor=none;fillColor=none;" parent="1" vertex="1">
          <mxGeometry x="210" y="204" width="30" height="30" as="geometry" />
        </mxCell>
        <mxCell id="6iUq0RLo29yA2gXEmjWx-37" value="validar (1)" style="text;html=1;align=center;verticalAlign=middle;resizable=0;points=[];autosize=1;strokeColor=none;fillColor=none;" parent="1" vertex="1">
          <mxGeometry x="760" y="486" width="80" height="30" as="geometry" />
        </mxCell>
        <mxCell id="6iUq0RLo29yA2gXEmjWx-38" value="(1)" style="text;html=1;align=center;verticalAlign=middle;resizable=0;points=[];autosize=1;strokeColor=none;fillColor=none;" parent="1" vertex="1">
          <mxGeometry x="-660" y="-390" width="40" height="30" as="geometry" />
        </mxCell>
        <mxCell id="6iUq0RLo29yA2gXEmjWx-39" value="para filtrar lineas duplicadas" style="text;html=1;align=center;verticalAlign=middle;resizable=0;points=[];autosize=1;strokeColor=none;fillColor=none;" parent="1" vertex="1">
          <mxGeometry x="-1090" y="617" width="170" height="30" as="geometry" />
        </mxCell>
        <mxCell id="6iUq0RLo29yA2gXEmjWx-40" value="&lt;font style=&quot;font-size: 9px;&quot;&gt;viene de la mano con agregarCompetidor()&lt;/font&gt;" style="text;html=1;align=center;verticalAlign=middle;resizable=0;points=[];autosize=1;strokeColor=none;fillColor=none;" parent="1" vertex="1">
          <mxGeometry x="690" y="348" width="200" height="30" as="geometry" />
        </mxCell>
        <mxCell id="6iUq0RLo29yA2gXEmjWx-41" value="" style="shape=waypoint;sketch=0;size=6;pointerEvents=1;points=[];fillColor=none;resizable=0;rotatable=0;perimeter=centerPerimeter;snapToPoint=1;" parent="1" vertex="1">
          <mxGeometry x="-580" y="-205" width="40" height="40" as="geometry" />
        </mxCell>
        <mxCell id="6iUq0RLo29yA2gXEmjWx-43" value="+ quitarCompetidor (UnidadCompetidor): boolean" style="text;strokeColor=#6F0000;fillColor=#a20025;align=left;verticalAlign=top;spacingLeft=4;spacingRight=4;overflow=hidden;rotatable=0;points=[[0,0.5],[1,0.5]];portConstraint=eastwest;whiteSpace=wrap;html=1;fontColor=#ffffff;" parent="1" vertex="1">
          <mxGeometry x="460" y="760" width="310" height="26" as="geometry" />
        </mxCell>
        <mxCell id="6iUq0RLo29yA2gXEmjWx-46" value="Gabi villa" style="text;html=1;align=center;verticalAlign=middle;resizable=0;points=[];autosize=1;strokeColor=none;fillColor=none;fontSize=9;" parent="1" vertex="1">
          <mxGeometry x="90" y="-80" width="60" height="20" as="geometry" />
        </mxCell>
        <mxCell id="6iUq0RLo29yA2gXEmjWx-47" value="Gabo Arias" style="text;html=1;align=center;verticalAlign=middle;resizable=0;points=[];autosize=1;strokeColor=none;fillColor=none;fontSize=9;" parent="1" vertex="1">
          <mxGeometry x="140" y="-80" width="70" height="20" as="geometry" />
        </mxCell>
        <mxCell id="6iUq0RLo29yA2gXEmjWx-48" value="Nacho nogueira" style="text;html=1;align=center;verticalAlign=middle;resizable=0;points=[];autosize=1;strokeColor=none;fillColor=none;fontSize=9;" parent="1" vertex="1">
          <mxGeometry x="-1095" y="230" width="90" height="20" as="geometry" />
        </mxCell>
        <mxCell id="6iUq0RLo29yA2gXEmjWx-49" value="Cris" style="text;html=1;align=center;verticalAlign=middle;resizable=0;points=[];autosize=1;strokeColor=none;fillColor=none;fontSize=9;" parent="1" vertex="1">
          <mxGeometry x="-480" y="290" width="40" height="20" as="geometry" />
        </mxCell>
        <mxCell id="6iUq0RLo29yA2gXEmjWx-50" value="Colla: exceptions" style="text;html=1;align=center;verticalAlign=middle;resizable=0;points=[];autosize=1;strokeColor=none;fillColor=none;fontSize=9;" parent="1" vertex="1">
          <mxGeometry x="-1135" y="820" width="90" height="20" as="geometry" />
        </mxCell>
        <mxCell id="czNb4vSy-Apc3xaNGzGD-1" value="Liga" style="swimlane;fontStyle=1;align=center;verticalAlign=top;childLayout=stackLayout;horizontal=1;startSize=26;horizontalStack=0;resizeParent=1;resizeParentMax=0;resizeLast=0;collapsible=1;marginBottom=0;whiteSpace=wrap;html=1;" parent="1" vertex="1">
          <mxGeometry x="860" y="760" width="310" height="266" as="geometry" />
        </mxCell>
        <mxCell id="czNb4vSy-Apc3xaNGzGD-2" value="- competidores: Set &amp;lt;UnidadCompetidor&amp;gt;&amp;nbsp;" style="text;strokeColor=none;fillColor=none;align=left;verticalAlign=top;spacingLeft=4;spacingRight=4;overflow=hidden;rotatable=0;points=[[0,0.5],[1,0.5]];portConstraint=eastwest;whiteSpace=wrap;html=1;" parent="czNb4vSy-Apc3xaNGzGD-1" vertex="1">
          <mxGeometry y="26" width="310" height="26" as="geometry" />
        </mxCell>
        <mxCell id="czNb4vSy-Apc3xaNGzGD-3" value="- poderVelocidad: int = 0" style="text;strokeColor=none;fillColor=#FF1A12;align=left;verticalAlign=top;spacingLeft=4;spacingRight=4;overflow=hidden;rotatable=0;points=[[0,0.5],[1,0.5]];portConstraint=eastwest;whiteSpace=wrap;html=1;" parent="czNb4vSy-Apc3xaNGzGD-1" vertex="1">
          <mxGeometry y="52" width="310" height="26" as="geometry" />
        </mxCell>
        <mxCell id="czNb4vSy-Apc3xaNGzGD-4" value="- poderFuerza: int = 0" style="text;strokeColor=none;fillColor=#FF1A12;align=left;verticalAlign=top;spacingLeft=4;spacingRight=4;overflow=hidden;rotatable=0;points=[[0,0.5],[1,0.5]];portConstraint=eastwest;whiteSpace=wrap;html=1;" parent="czNb4vSy-Apc3xaNGzGD-1" vertex="1">
          <mxGeometry y="78" width="310" height="26" as="geometry" />
        </mxCell>
        <mxCell id="czNb4vSy-Apc3xaNGzGD-5" value="- poderResistencia: int = 0" style="text;strokeColor=none;fillColor=#FF1A12;align=left;verticalAlign=top;spacingLeft=4;spacingRight=4;overflow=hidden;rotatable=0;points=[[0,0.5],[1,0.5]];portConstraint=eastwest;whiteSpace=wrap;html=1;" parent="czNb4vSy-Apc3xaNGzGD-1" vertex="1">
          <mxGeometry y="104" width="310" height="26" as="geometry" />
        </mxCell>
        <mxCell id="czNb4vSy-Apc3xaNGzGD-6" value="- poderDestreza: int = 0" style="text;strokeColor=none;fillColor=#FF1A12;align=left;verticalAlign=top;spacingLeft=4;spacingRight=4;overflow=hidden;rotatable=0;points=[[0,0.5],[1,0.5]];portConstraint=eastwest;whiteSpace=wrap;html=1;" parent="czNb4vSy-Apc3xaNGzGD-1" vertex="1">
          <mxGeometry y="130" width="310" height="26" as="geometry" />
        </mxCell>
        <mxCell id="czNb4vSy-Apc3xaNGzGD-7" value="" style="line;strokeWidth=1;fillColor=none;align=left;verticalAlign=middle;spacingTop=-1;spacingLeft=3;spacingRight=3;rotatable=0;labelPosition=right;points=[];portConstraint=eastwest;strokeColor=inherit;" parent="czNb4vSy-Apc3xaNGzGD-1" vertex="1">
          <mxGeometry y="156" width="310" height="8" as="geometry" />
        </mxCell>
        <mxCell id="czNb4vSy-Apc3xaNGzGD-8" value="+ agregarCompetidor (UnidadCompetidor): boolean" style="text;strokeColor=none;fillColor=none;align=left;verticalAlign=top;spacingLeft=4;spacingRight=4;overflow=hidden;rotatable=0;points=[[0,0.5],[1,0.5]];portConstraint=eastwest;whiteSpace=wrap;html=1;" parent="czNb4vSy-Apc3xaNGzGD-1" vertex="1">
          <mxGeometry y="164" width="310" height="26" as="geometry" />
        </mxCell>
        <mxCell id="czNb4vSy-Apc3xaNGzGD-9" value="+ contarCompetidores(): int" style="text;strokeColor=none;fillColor=none;align=left;verticalAlign=top;spacingLeft=4;spacingRight=4;overflow=hidden;rotatable=0;points=[[0,0.5],[1,0.5]];portConstraint=eastwest;whiteSpace=wrap;html=1;" parent="czNb4vSy-Apc3xaNGzGD-1" vertex="1">
          <mxGeometry y="190" width="310" height="24" as="geometry" />
        </mxCell>
        <mxCell id="czNb4vSy-Apc3xaNGzGD-10" value="+ calcularPoderGrupo(Caracteristica): int" style="text;strokeColor=none;fillColor=none;align=left;verticalAlign=top;spacingLeft=4;spacingRight=4;overflow=hidden;rotatable=0;points=[[0,0.5],[1,0.5]];portConstraint=eastwest;whiteSpace=wrap;html=1;" parent="czNb4vSy-Apc3xaNGzGD-1" vertex="1">
          <mxGeometry y="214" width="310" height="26" as="geometry" />
        </mxCell>
        <mxCell id="czNb4vSy-Apc3xaNGzGD-11" value="+ enfrentarse(UnidadCompetidor, Caracteristica): int" style="text;strokeColor=none;fillColor=none;align=left;verticalAlign=top;spacingLeft=4;spacingRight=4;overflow=hidden;rotatable=0;points=[[0,0.5],[1,0.5]];portConstraint=eastwest;whiteSpace=wrap;html=1;" parent="czNb4vSy-Apc3xaNGzGD-1" vertex="1">
          <mxGeometry y="240" width="310" height="26" as="geometry" />
        </mxCell>
        <mxCell id="czNb4vSy-Apc3xaNGzGD-12" value="No hace falta, puede tener Caracteristica" style="text;html=1;align=center;verticalAlign=middle;resizable=0;points=[];autosize=1;strokeColor=none;fillColor=none;" parent="1" vertex="1">
          <mxGeometry x="1200" y="840" width="240" height="30" as="geometry" />
        </mxCell>
        <mxCell id="czNb4vSy-Apc3xaNGzGD-13" value="+ calcularPoderGrupo(Caracteristica): int" style="text;strokeColor=none;fillColor=none;align=left;verticalAlign=top;spacingLeft=4;spacingRight=4;overflow=hidden;rotatable=0;points=[[0,0.5],[1,0.5]];portConstraint=eastwest;whiteSpace=wrap;html=1;" parent="1" vertex="1">
          <mxGeometry x="450" y="600" width="310" height="26" as="geometry" />
        </mxCell>
        <mxCell id="czNb4vSy-Apc3xaNGzGD-14" value="Esto así no porque yo ya voy a tener los competidores en el set. Tengo que calcular todos los poderes" style="text;html=1;align=center;verticalAlign=middle;resizable=0;points=[];autosize=1;strokeColor=none;fillColor=none;" parent="1" vertex="1">
          <mxGeometry x="325" y="638" width="570" height="30" as="geometry" />
        </mxCell>
        <mxCell id="czNb4vSy-Apc3xaNGzGD-16" value="+ agregar (UnidadCompetidor): boolean" style="text;strokeColor=none;fillColor=none;align=left;verticalAlign=top;spacingLeft=4;spacingRight=4;overflow=hidden;rotatable=0;points=[[0,0.5],[1,0.5]];portConstraint=eastwest;whiteSpace=wrap;html=1;" parent="1" vertex="1">
          <mxGeometry x="950" y="591" width="310" height="26" as="geometry" />
        </mxCell>
        <mxCell id="czNb4vSy-Apc3xaNGzGD-17" value="no tenía sentido por ahora el boolean" style="text;html=1;align=center;verticalAlign=middle;resizable=0;points=[];autosize=1;strokeColor=none;fillColor=none;" parent="1" vertex="1">
          <mxGeometry x="950" y="633" width="220" height="30" as="geometry" />
        </mxCell>
        <mxCell id="SNaS3OmWC-gYTTCGdnDe-1" value="Esto creo que no va" style="text;html=1;align=center;verticalAlign=middle;resizable=0;points=[];autosize=1;strokeColor=none;fillColor=none;" parent="1" vertex="1">
          <mxGeometry x="-1080" y="260" width="130" height="30" as="geometry" />
        </mxCell>
      </root>
    </mxGraphModel>
  </diagram>
</mxfile>
